<mxfile host="app.diagrams.net" modified="2024-01-01T17:45:06.887Z" agent="Mozilla/5.0 (X11; Linux x86_64) AppleWebKit/537.36 (KHTML, like Gecko) Chrome/120.0.0.0 Safari/537.36" etag="V92T8dLgPZpefI_WTSqP" version="22.1.16" type="device">
  <diagram name="Page-1" id="3Kerfui37-F-t6yYH4Ah">
    <mxGraphModel dx="1434" dy="793" grid="1" gridSize="10" guides="1" tooltips="1" connect="1" arrows="1" fold="1" page="1" pageScale="1" pageWidth="827" pageHeight="1169" math="0" shadow="0">
      <root>
        <mxCell id="0" />
        <mxCell id="1" parent="0" />
        <mxCell id="jRDCgmgm3Fxr4SM5wMqz-29" value="" style="rounded=0;whiteSpace=wrap;html=1;" vertex="1" parent="1">
          <mxGeometry x="180" y="110" width="230" height="680" as="geometry" />
        </mxCell>
        <mxCell id="jRDCgmgm3Fxr4SM5wMqz-3" style="edgeStyle=orthogonalEdgeStyle;rounded=0;orthogonalLoop=1;jettySize=auto;html=1;exitX=0.5;exitY=1;exitDx=0;exitDy=0;entryX=0.5;entryY=0;entryDx=0;entryDy=0;" edge="1" parent="1" source="jRDCgmgm3Fxr4SM5wMqz-2" target="jRDCgmgm3Fxr4SM5wMqz-5">
          <mxGeometry relative="1" as="geometry">
            <mxPoint x="294.25" y="150" as="targetPoint" />
          </mxGeometry>
        </mxCell>
        <mxCell id="jRDCgmgm3Fxr4SM5wMqz-2" value="Source Code" style="text;html=1;strokeColor=none;fillColor=none;align=center;verticalAlign=middle;whiteSpace=wrap;rounded=0;" vertex="1" parent="1">
          <mxGeometry x="245.5" y="130" width="97" height="30" as="geometry" />
        </mxCell>
        <mxCell id="jRDCgmgm3Fxr4SM5wMqz-8" style="edgeStyle=orthogonalEdgeStyle;rounded=0;orthogonalLoop=1;jettySize=auto;html=1;exitX=0.5;exitY=1;exitDx=0;exitDy=0;" edge="1" parent="1" source="jRDCgmgm3Fxr4SM5wMqz-5" target="jRDCgmgm3Fxr4SM5wMqz-6">
          <mxGeometry relative="1" as="geometry" />
        </mxCell>
        <mxCell id="jRDCgmgm3Fxr4SM5wMqz-5" value="Scanner/Lexer" style="rounded=1;whiteSpace=wrap;html=1;" vertex="1" parent="1">
          <mxGeometry x="215.25" y="200" width="157" height="40" as="geometry" />
        </mxCell>
        <mxCell id="jRDCgmgm3Fxr4SM5wMqz-11" style="edgeStyle=orthogonalEdgeStyle;rounded=0;orthogonalLoop=1;jettySize=auto;html=1;entryX=0.5;entryY=0;entryDx=0;entryDy=0;" edge="1" parent="1" source="jRDCgmgm3Fxr4SM5wMqz-6" target="jRDCgmgm3Fxr4SM5wMqz-9">
          <mxGeometry relative="1" as="geometry" />
        </mxCell>
        <mxCell id="jRDCgmgm3Fxr4SM5wMqz-6" value="Tokens" style="text;html=1;align=center;verticalAlign=middle;resizable=0;points=[];autosize=1;strokeColor=none;fillColor=none;" vertex="1" parent="1">
          <mxGeometry x="264" y="270" width="60" height="30" as="geometry" />
        </mxCell>
        <mxCell id="jRDCgmgm3Fxr4SM5wMqz-9" value="Parser" style="rounded=1;whiteSpace=wrap;html=1;" vertex="1" parent="1">
          <mxGeometry x="215.25" y="330" width="157.5" height="40" as="geometry" />
        </mxCell>
        <mxCell id="jRDCgmgm3Fxr4SM5wMqz-12" value="Abstract Syntax Tree (AST)" style="text;html=1;align=center;verticalAlign=middle;resizable=0;points=[];autosize=1;strokeColor=none;fillColor=none;" vertex="1" parent="1">
          <mxGeometry x="209" y="418" width="170" height="30" as="geometry" />
        </mxCell>
        <mxCell id="jRDCgmgm3Fxr4SM5wMqz-13" style="edgeStyle=orthogonalEdgeStyle;rounded=0;orthogonalLoop=1;jettySize=auto;html=1;exitX=0.5;exitY=1;exitDx=0;exitDy=0;entryX=0.501;entryY=-0.1;entryDx=0;entryDy=0;entryPerimeter=0;" edge="1" parent="1" source="jRDCgmgm3Fxr4SM5wMqz-9" target="jRDCgmgm3Fxr4SM5wMqz-12">
          <mxGeometry relative="1" as="geometry" />
        </mxCell>
        <mxCell id="jRDCgmgm3Fxr4SM5wMqz-20" style="edgeStyle=orthogonalEdgeStyle;rounded=0;orthogonalLoop=1;jettySize=auto;html=1;exitX=0.5;exitY=1;exitDx=0;exitDy=0;" edge="1" parent="1" source="jRDCgmgm3Fxr4SM5wMqz-14" target="jRDCgmgm3Fxr4SM5wMqz-18">
          <mxGeometry relative="1" as="geometry" />
        </mxCell>
        <mxCell id="jRDCgmgm3Fxr4SM5wMqz-14" value="Semantic Analysis" style="rounded=1;whiteSpace=wrap;html=1;" vertex="1" parent="1">
          <mxGeometry x="215.75" y="500" width="158.5" height="40" as="geometry" />
        </mxCell>
        <mxCell id="jRDCgmgm3Fxr4SM5wMqz-15" style="edgeStyle=orthogonalEdgeStyle;rounded=0;orthogonalLoop=1;jettySize=auto;html=1;entryX=0.494;entryY=-0.25;entryDx=0;entryDy=0;entryPerimeter=0;" edge="1" parent="1" source="jRDCgmgm3Fxr4SM5wMqz-12" target="jRDCgmgm3Fxr4SM5wMqz-14">
          <mxGeometry relative="1" as="geometry" />
        </mxCell>
        <mxCell id="jRDCgmgm3Fxr4SM5wMqz-23" style="edgeStyle=orthogonalEdgeStyle;rounded=0;orthogonalLoop=1;jettySize=auto;html=1;" edge="1" parent="1" source="jRDCgmgm3Fxr4SM5wMqz-17" target="jRDCgmgm3Fxr4SM5wMqz-19">
          <mxGeometry relative="1" as="geometry" />
        </mxCell>
        <mxCell id="jRDCgmgm3Fxr4SM5wMqz-17" value="Assembler" style="rounded=1;whiteSpace=wrap;html=1;" vertex="1" parent="1">
          <mxGeometry x="215.75" y="660" width="158.5" height="40" as="geometry" />
        </mxCell>
        <mxCell id="jRDCgmgm3Fxr4SM5wMqz-22" style="edgeStyle=orthogonalEdgeStyle;rounded=0;orthogonalLoop=1;jettySize=auto;html=1;entryX=0.5;entryY=0;entryDx=0;entryDy=0;" edge="1" parent="1" source="jRDCgmgm3Fxr4SM5wMqz-18" target="jRDCgmgm3Fxr4SM5wMqz-17">
          <mxGeometry relative="1" as="geometry" />
        </mxCell>
        <mxCell id="jRDCgmgm3Fxr4SM5wMqz-18" value="Intermediate Code/Representation" style="text;html=1;align=center;verticalAlign=middle;resizable=0;points=[];autosize=1;strokeColor=none;fillColor=none;" vertex="1" parent="1">
          <mxGeometry x="190" y="580" width="210" height="30" as="geometry" />
        </mxCell>
        <mxCell id="jRDCgmgm3Fxr4SM5wMqz-19" value="Executables" style="text;html=1;align=center;verticalAlign=middle;resizable=0;points=[];autosize=1;strokeColor=none;fillColor=none;" vertex="1" parent="1">
          <mxGeometry x="250" y="740" width="90" height="30" as="geometry" />
        </mxCell>
        <mxCell id="jRDCgmgm3Fxr4SM5wMqz-31" style="edgeStyle=orthogonalEdgeStyle;rounded=0;orthogonalLoop=1;jettySize=auto;html=1;entryX=1;entryY=0.426;entryDx=0;entryDy=0;entryPerimeter=0;" edge="1" parent="1" source="jRDCgmgm3Fxr4SM5wMqz-30" target="jRDCgmgm3Fxr4SM5wMqz-29">
          <mxGeometry relative="1" as="geometry" />
        </mxCell>
        <mxCell id="jRDCgmgm3Fxr4SM5wMqz-33" value="Translation&lt;br&gt;" style="edgeLabel;html=1;align=center;verticalAlign=middle;resizable=0;points=[];" vertex="1" connectable="0" parent="jRDCgmgm3Fxr4SM5wMqz-31">
          <mxGeometry x="-0.0552" relative="1" as="geometry">
            <mxPoint y="-10" as="offset" />
          </mxGeometry>
        </mxCell>
        <mxCell id="jRDCgmgm3Fxr4SM5wMqz-32" value="" style="group" vertex="1" connectable="0" parent="1">
          <mxGeometry x="560" y="290" width="210" height="220" as="geometry" />
        </mxCell>
        <mxCell id="jRDCgmgm3Fxr4SM5wMqz-30" value="" style="rounded=0;whiteSpace=wrap;html=1;" vertex="1" parent="jRDCgmgm3Fxr4SM5wMqz-32">
          <mxGeometry width="210" height="220" as="geometry" />
        </mxCell>
        <mxCell id="jRDCgmgm3Fxr4SM5wMqz-24" value="Source Code" style="text;html=1;strokeColor=none;fillColor=none;align=center;verticalAlign=middle;whiteSpace=wrap;rounded=0;" vertex="1" parent="jRDCgmgm3Fxr4SM5wMqz-32">
          <mxGeometry x="50" y="20" width="97" height="30" as="geometry" />
        </mxCell>
        <mxCell id="jRDCgmgm3Fxr4SM5wMqz-25" value="Compiler" style="rounded=1;whiteSpace=wrap;html=1;" vertex="1" parent="jRDCgmgm3Fxr4SM5wMqz-32">
          <mxGeometry x="20" y="90" width="157" height="40" as="geometry" />
        </mxCell>
        <mxCell id="jRDCgmgm3Fxr4SM5wMqz-27" style="edgeStyle=orthogonalEdgeStyle;rounded=0;orthogonalLoop=1;jettySize=auto;html=1;entryX=0.5;entryY=0;entryDx=0;entryDy=0;" edge="1" parent="jRDCgmgm3Fxr4SM5wMqz-32" source="jRDCgmgm3Fxr4SM5wMqz-24" target="jRDCgmgm3Fxr4SM5wMqz-25">
          <mxGeometry relative="1" as="geometry" />
        </mxCell>
        <mxCell id="jRDCgmgm3Fxr4SM5wMqz-26" value="Executables" style="text;html=1;align=center;verticalAlign=middle;resizable=0;points=[];autosize=1;strokeColor=none;fillColor=none;" vertex="1" parent="jRDCgmgm3Fxr4SM5wMqz-32">
          <mxGeometry x="53.5" y="170" width="90" height="30" as="geometry" />
        </mxCell>
        <mxCell id="jRDCgmgm3Fxr4SM5wMqz-28" style="edgeStyle=orthogonalEdgeStyle;rounded=0;orthogonalLoop=1;jettySize=auto;html=1;entryX=0.508;entryY=-0.033;entryDx=0;entryDy=0;entryPerimeter=0;" edge="1" parent="jRDCgmgm3Fxr4SM5wMqz-32" source="jRDCgmgm3Fxr4SM5wMqz-25" target="jRDCgmgm3Fxr4SM5wMqz-26">
          <mxGeometry relative="1" as="geometry" />
        </mxCell>
      </root>
    </mxGraphModel>
  </diagram>
</mxfile>
